<svg width="223" height="88" viewBox="0 0 223 88" fill="none" xmlns="http://www.w3.org/2000/svg">
<g clip-path="url(#clip0_530_197)">
<rect width="223" height="88" fill="#0F172A"/>
<path d="M70.664 68L90.184 23.2H99.848L119.24 68H108.104L97.736 43.744C97.352 42.8053 96.968 41.8667 96.584 40.928C96.2427 39.9893 95.9013 39.0293 95.56 38.048C95.2187 37.0667 94.8987 36.1067 94.6 35.168C94.3013 34.2293 94.024 33.3333 93.768 32.48L95.944 32.416C95.688 33.44 95.3893 34.4213 95.048 35.36C94.7493 36.2987 94.4293 37.2373 94.088 38.176C93.7467 39.072 93.384 39.9893 93 40.928C92.616 41.8667 92.232 42.8267 91.848 43.808L81.48 68H70.664ZM79.816 59.68L83.336 51.488H106.376L109 59.68H79.816ZM128.683 68V23.2H151.147C154.304 23.2 157.078 23.8187 159.467 25.056C161.856 26.2507 163.712 27.9147 165.035 30.048C166.358 32.1813 167.019 34.656 167.019 37.472C167.019 40.3307 166.315 42.8907 164.907 45.152C163.542 47.3707 161.643 49.1413 159.211 50.464C156.822 51.744 154.134 52.384 151.147 52.384H139.051V68H128.683ZM156.715 68L143.787 47.776L155.051 46.176L169.259 68H156.715ZM139.051 44.064H150.059C151.254 44.064 152.299 43.808 153.195 43.296C154.134 42.784 154.859 42.08 155.371 41.184C155.926 40.288 156.203 39.2427 156.203 38.048C156.203 36.896 155.904 35.8933 155.307 35.04C154.752 34.144 153.963 33.4613 152.939 32.992C151.958 32.5227 150.784 32.288 149.419 32.288H139.051V44.064ZM203.074 68.64C199.533 68.64 196.226 68.0853 193.154 66.976C190.125 65.824 187.458 64.224 185.154 62.176C182.893 60.128 181.143 57.696 179.906 54.88C178.669 52.0213 178.05 48.864 178.05 45.408C178.05 42.0373 178.69 38.944 179.97 36.128C181.293 33.312 183.085 30.88 185.346 28.832C187.607 26.784 190.274 25.184 193.346 24.032C196.418 22.88 199.725 22.304 203.266 22.304C205.698 22.304 208.045 22.6027 210.306 23.2C212.61 23.7973 214.743 24.6293 216.706 25.696C218.669 26.7627 220.333 27.9787 221.698 29.344L215.234 37.408C214.21 36.4267 213.101 35.5733 211.906 34.848C210.711 34.08 209.367 33.4827 207.874 33.056C206.381 32.5867 204.738 32.352 202.946 32.352C201.197 32.352 199.49 32.6507 197.826 33.248C196.162 33.8453 194.69 34.72 193.41 35.872C192.13 36.9813 191.106 38.368 190.338 40.032C189.613 41.6533 189.25 43.488 189.25 45.536C189.25 47.584 189.634 49.4187 190.402 51.04C191.17 52.6613 192.215 54.048 193.538 55.2C194.903 56.3093 196.482 57.1627 198.274 57.76C200.066 58.3573 202.007 58.656 204.098 58.656C205.933 58.656 207.597 58.4 209.09 57.888C210.583 57.376 211.927 56.7573 213.122 56.032C214.317 55.264 215.383 54.4533 216.322 53.6L221.506 61.984C220.354 63.0933 218.818 64.16 216.898 65.184C214.978 66.208 212.823 67.04 210.434 67.68C208.045 68.32 205.591 68.64 203.074 68.64Z" fill="#F8FAFC"/>
<path d="M0.999998 26L44.5 0.885266L44.5 51.1147L0.999998 26Z" fill="#F8FAFC"/>
<rect x="8.48386" y="19.8279" width="1.65338" height="44.2501" transform="rotate(-60 8.48386 19.8279)" fill="#0F172A"/>
<path d="M60 62L16.5 87.1147L16.5 36.8853L60 62Z" fill="#F8FAFC"/>
<rect x="52.5161" y="68.1721" width="1.65338" height="44.2501" transform="rotate(120 52.5161 68.1721)" fill="#0F172A"/>
</g>
<defs>
<clipPath id="clip0_530_197">
<rect width="223" height="88" fill="white"/>
</clipPath>
</defs>
</svg>
