<svg width="221" height="88" viewBox="0 0 221 88" fill="none" xmlns="http://www.w3.org/2000/svg">
<g clip-path="url(#clip0_528_181)">
<rect width="221" height="88" fill="#F8FAFC"/>
<path d="M69.664 68L89.184 23.2H98.848L118.24 68H107.104L96.736 43.744C96.352 42.8053 95.968 41.8667 95.584 40.928C95.2427 39.9893 94.9013 39.0293 94.56 38.048C94.2187 37.0667 93.8987 36.1067 93.6 35.168C93.3013 34.2293 93.024 33.3333 92.768 32.48L94.944 32.416C94.688 33.44 94.3893 34.4213 94.048 35.36C93.7493 36.2987 93.4293 37.2373 93.088 38.176C92.7467 39.072 92.384 39.9893 92 40.928C91.616 41.8667 91.232 42.8267 90.848 43.808L80.48 68H69.664ZM78.816 59.68L82.336 51.488H105.376L108 59.68H78.816ZM127.683 68V23.2H150.147C153.304 23.2 156.078 23.8187 158.467 25.056C160.856 26.2507 162.712 27.9147 164.035 30.048C165.358 32.1813 166.019 34.656 166.019 37.472C166.019 40.3307 165.315 42.8907 163.907 45.152C162.542 47.3707 160.643 49.1413 158.211 50.464C155.822 51.744 153.134 52.384 150.147 52.384H138.051V68H127.683ZM155.715 68L142.787 47.776L154.051 46.176L168.259 68H155.715ZM138.051 44.064H149.059C150.254 44.064 151.299 43.808 152.195 43.296C153.134 42.784 153.859 42.08 154.371 41.184C154.926 40.288 155.203 39.2427 155.203 38.048C155.203 36.896 154.904 35.8933 154.307 35.04C153.752 34.144 152.963 33.4613 151.939 32.992C150.958 32.5227 149.784 32.288 148.419 32.288H138.051V44.064ZM202.074 68.64C198.533 68.64 195.226 68.0853 192.154 66.976C189.125 65.824 186.458 64.224 184.154 62.176C181.893 60.128 180.143 57.696 178.906 54.88C177.669 52.0213 177.05 48.864 177.05 45.408C177.05 42.0373 177.69 38.944 178.97 36.128C180.293 33.312 182.085 30.88 184.346 28.832C186.607 26.784 189.274 25.184 192.346 24.032C195.418 22.88 198.725 22.304 202.266 22.304C204.698 22.304 207.045 22.6027 209.306 23.2C211.61 23.7973 213.743 24.6293 215.706 25.696C217.669 26.7627 219.333 27.9787 220.698 29.344L214.234 37.408C213.21 36.4267 212.101 35.5733 210.906 34.848C209.711 34.08 208.367 33.4827 206.874 33.056C205.381 32.5867 203.738 32.352 201.946 32.352C200.197 32.352 198.49 32.6507 196.826 33.248C195.162 33.8453 193.69 34.72 192.41 35.872C191.13 36.9813 190.106 38.368 189.338 40.032C188.613 41.6533 188.25 43.488 188.25 45.536C188.25 47.584 188.634 49.4187 189.402 51.04C190.17 52.6613 191.215 54.048 192.538 55.2C193.903 56.3093 195.482 57.1627 197.274 57.76C199.066 58.3573 201.007 58.656 203.098 58.656C204.933 58.656 206.597 58.4 208.09 57.888C209.583 57.376 210.927 56.7573 212.122 56.032C213.317 55.264 214.383 54.4533 215.322 53.6L220.506 61.984C219.354 63.0933 217.818 64.16 215.898 65.184C213.978 66.208 211.823 67.04 209.434 67.68C207.045 68.32 204.591 68.64 202.074 68.64Z" fill="#0F172A"/>
<path d="M5.30034e-06 26L43.5 0.885266L43.5 51.1147L5.30034e-06 26Z" fill="#0F172A"/>
<rect x="7.48385" y="19.8279" width="1.65338" height="44.2501" transform="rotate(-60 7.48385 19.8279)" fill="#F8FAFC"/>
<path d="M59 62L15.5 87.1147L15.5 36.8853L59 62Z" fill="#0F172A"/>
<rect x="51.5162" y="68.1721" width="1.65338" height="44.2501" transform="rotate(120 51.5162 68.1721)" fill="#F8FAFC"/>
</g>
<defs>
<clipPath id="clip0_528_181">
<rect width="221" height="88" fill="white"/>
</clipPath>
</defs>
</svg>
